<svg width="38" height="38" viewBox="0 0 38 38" fill="none" xmlns="http://www.w3.org/2000/svg">
<mask id="path-1-inside-1" fill="white">
<path fill-rule="evenodd" clip-rule="evenodd" d="M7.00037 5.75874C7.00037 4.75312 7.74706 3.90389 8.74441 3.77519L35.7437 0.291173C36.9398 0.136818 37.9995 1.06838 37.9996 2.27447L38.0001 6.24095L38 6.2658V29.9705V29.9998H37.9999C37.9841 32.1954 36.1994 33.9705 34 33.9705H31C28.7909 33.9705 27 32.1796 27 29.9705C27 27.7614 28.7909 25.9705 31 25.9705H34V8.51593L11 11.4842V33.9705V33.9959H10.9999C10.9863 36.1933 9.20067 37.9705 7 37.9705H4C1.79086 37.9705 0 36.1796 0 33.9705C0 31.7614 1.79086 29.9705 4 29.9705H7V9.99588H7.00037L7.00037 5.75874Z"/>
</mask>
<path d="M8.74441 3.77519L8.87239 4.76696L8.74441 3.77519ZM7.00037 5.75874H6.00037H7.00037ZM35.7437 0.291173L35.6157 -0.700604V-0.700604L35.7437 0.291173ZM37.9996 2.27447L38.9996 2.27434V2.27433L37.9996 2.27447ZM38.0001 6.24095L39.0001 6.24694V6.24082L38.0001 6.24095ZM38 6.2658L37 6.25981V6.2658H38ZM38 29.9998V30.9998H39V29.9998H38ZM37.9999 29.9998V28.9998H37.007L36.9999 29.9926L37.9999 29.9998ZM34 25.9705V26.9705H35V25.9705H34ZM34 8.51593H35V7.37858L33.872 7.52415L34 8.51593ZM11 11.4842L10.872 10.4924L10 10.605V11.4842H11ZM11 33.9959V34.9959H12V33.9959H11ZM10.9999 33.9959V32.9959H10.0061L9.99994 33.9897L10.9999 33.9959ZM7 29.9705V30.9705H8V29.9705H7ZM7 9.99588V8.99588H6V9.99588H7ZM7.00037 9.99588V10.9959H8.00037L8.00037 9.99588H7.00037ZM8.61643 2.78341C7.12041 2.97646 6.00037 4.25031 6.00037 5.75874H8.00037C8.00037 5.25593 8.37372 4.83131 8.87239 4.76696L8.61643 2.78341ZM35.6157 -0.700604L8.61643 2.78341L8.87239 4.76696L35.8717 1.28295L35.6157 -0.700604ZM38.9996 2.27433C38.9994 0.46521 37.4099 -0.932136 35.6157 -0.700604L35.8717 1.28295C36.4697 1.20577 36.9996 1.67155 36.9996 2.2746L38.9996 2.27433ZM39.0001 6.24082L38.9996 2.27434L36.9996 2.27459L37.0001 6.24108L39.0001 6.24082ZM39 6.27178L39.0001 6.24694L37.0002 6.23496L37 6.25981L39 6.27178ZM39 29.9705V6.2658H37V29.9705H39ZM39 29.9998V29.9705H37V29.9998H39ZM37.9999 30.9998H38V28.9998H37.9999V30.9998ZM34 34.9705C36.7493 34.9705 38.9802 32.7517 38.9999 30.007L36.9999 29.9926C36.9881 31.6392 35.6495 32.9705 34 32.9705V34.9705ZM34 32.9705H31V34.9705H34V32.9705ZM26 29.9705C26 32.7319 28.2386 34.9705 31 34.9705V32.9705C29.3431 32.9705 28 31.6274 28 29.9705H26ZM31 24.9705C28.2386 24.9705 26 27.2091 26 29.9705H28C28 28.3136 29.3431 26.9705 31 26.9705V24.9705ZM31 26.9705H34V24.9705H31V26.9705ZM33 8.51593V25.9705H35V8.51593H33ZM11.128 12.476L34.128 9.5077L33.872 7.52415L10.872 10.4924L11.128 12.476ZM12 33.9705V11.4842H10V33.9705H12ZM12 33.9959V33.9705H10V33.9959H12ZM10.9999 34.9959H11V32.9959H10.9999V34.9959ZM7 38.9705C9.75087 38.9705 11.9828 36.7491 11.9999 34.0021L9.99994 33.9897C9.9897 35.6376 8.65047 36.9705 7 36.9705V38.9705ZM4 38.9705H7V36.9705H4V38.9705ZM-1 33.9705C-1 36.7319 1.23858 38.9705 4 38.9705V36.9705C2.34315 36.9705 1 35.6273 1 33.9705H-1ZM4 28.9705C1.23858 28.9705 -1 31.2091 -1 33.9705H1C1 32.3136 2.34315 30.9705 4 30.9705V28.9705ZM7 28.9705H4V30.9705H7V28.9705ZM6 9.99588V29.9705H8V9.99588H6ZM7.00037 8.99588H7V10.9959H7.00037V8.99588ZM6.00037 5.75874L6.00037 9.99588H8.00037V5.75874H6.00037Z" fill="#FF4646" mask="url(#path-1-inside-1)"/>
</svg>
