<svg width="243" height="337" viewBox="0 0 243 337" fill="none" xmlns="http://www.w3.org/2000/svg">
<path d="M231.351 231.044L196.051 197.495L232.042 163.343L192.436 125.741L156.445 159.893L121.145 126.379L85.8078 159.893L49.8716 125.741L10.2109 163.343L46.1835 197.495L10.8832 231.044L46.1835 264.558L10.2109 298.71L49.8716 336.312L85.8078 302.16L121.145 335.674L156.445 302.16L192.436 336.312L232.042 298.71L196.051 264.558L231.351 231.044ZM121.145 282.1L67.331 231.044L121.145 179.954L174.922 231.044L121.145 282.1Z" fill="#F3F3F3"/>
<path d="M242.251 15.3158L121.126 -99.6807L0 15.3158L121.126 130.312L242.251 15.3158ZM38.9521 15.3158L96.6717 -7.91803L121.144 -62.6996L145.616 -7.91803L203.318 15.3158L145.616 38.5497L121.144 93.3485L96.6535 38.5497L38.9521 15.3158Z" fill="#F3F3F3"/>
</svg>
