<svg width="42" height="31" viewBox="0 0 42 31" fill="none" xmlns="http://www.w3.org/2000/svg">
<mask id="path-1-inside-1" fill="white">
<path fill-rule="evenodd" clip-rule="evenodd" d="M42 2C42 0.895431 41.1046 0 40 0H2C0.895431 0 0 0.89543 0 2V29C0 30.1046 0.895432 31 2 31H37H40C41.1046 31 42 30.1046 42 29V27.3529V2ZM9 12C9 11.4477 9.44772 11 10 11H32C32.5523 11 33 11.4477 33 12C33 12.5523 32.5523 13 32 13H10C9.44772 13 9 12.5523 9 12ZM9 20C9 19.4477 9.44771 19 10 19H23C23.5523 19 24 19.4477 24 20C24 20.5523 23.5523 21 23 21H10C9.44772 21 9 20.5523 9 20Z"/>
</mask>
<path d="M2 1H40V-1H2V1ZM1 29V2H-1V29H1ZM37 30H2V32H37V30ZM40 30H37V32H40V30ZM41 27.3529V29H43V27.3529H41ZM41 2V27.3529H43V2H41ZM32 10H10V12H32V10ZM10 14H32V12H10V14ZM23 18H10V20H23V18ZM10 22H23V20H10V22ZM10 20H8C8 21.1046 8.89543 22 10 22V20ZM23 20H25C25 18.8954 24.1046 18 23 18V20ZM10 12H8C8 13.1046 8.89543 14 10 14V12ZM32 12V14C33.1046 14 34 13.1046 34 12H32ZM10 10C8.89543 10 8 10.8954 8 12H10V10ZM40 32C41.6569 32 43 30.6569 43 29H41C41 29.5523 40.5523 30 40 30V32ZM-1 29C-1 30.6569 0.343147 32 2 32V30C1.44772 30 1 29.5523 1 29H-1ZM32 12H34C34 10.8954 33.1046 10 32 10V12ZM23 20V22C24.1046 22 25 21.1046 25 20H23ZM40 1C40.5523 1 41 1.44772 41 2H43C43 0.343146 41.6569 -1 40 -1V1ZM10 18C8.89543 18 8 18.8954 8 20H10V18ZM2 -1C0.343146 -1 -1 0.343146 -1 2H1C1 1.44772 1.44772 1 2 1V-1Z" fill="#FF4646" mask="url(#path-1-inside-1)"/>
</svg>
