<svg width="202" height="45" viewBox="0 0 202 45" fill="none" xmlns="http://www.w3.org/2000/svg">
<g opacity="0.3" clip-path="url(#clip0)">
<path d="M8.825 15.06H14.275V3H2.425V15.06H7.865L0.875 22.28L7.865 29.5H2.425V41.57H14.275V29.5H8.825L15.815 22.28L8.825 15.06Z" fill="white"/>
<path d="M73.5059 22.28C76.9959 24.15 79.8659 27.03 81.7359 30.51C83.6059 27.03 86.4859 24.15 89.9659 22.28C86.4759 20.4 83.6059 17.53 81.7359 14.05C79.8659 17.54 76.9959 20.41 73.5059 22.28Z" fill="white"/>
<path d="M62.4355 11.14V33.42L81.7355 44.56L101.036 33.42V11.14L81.7355 0L62.4355 11.14ZM95.9155 19.49V25.09C90.3055 26.42 85.8755 30.85 84.5355 36.46H78.9355C77.5955 30.85 73.1755 26.42 67.5555 25.08V19.48C73.1755 18.14 77.6055 13.72 78.9355 8.1H84.5355C85.8655 13.72 90.3055 18.15 95.9155 19.49Z" fill="white"/>
<path d="M38.9641 2.23001C27.8941 2.23001 18.9141 11.21 18.9141 22.28C18.9141 33.35 27.8941 42.33 38.9641 42.33C50.0441 42.33 59.0141 33.35 59.0141 22.28C59.0141 11.21 50.0441 2.23001 38.9641 2.23001ZM38.9641 37.94L23.3141 22.28L38.9641 6.63001L54.6241 22.29L38.9641 37.94Z" fill="white"/>
<path d="M46.6047 14.64H31.3047V29.94H46.6047V14.64Z" fill="white"/>
<path d="M118.456 19.17C122.656 19.17 123.636 15.17 123.646 15.13L123.676 15.01H121.286L121.266 15.08C121.256 15.1 120.696 16.99 118.466 16.99C116.596 16.99 115.386 15.75 115.386 13.84C115.386 12.01 116.686 10.69 118.466 10.69C120.626 10.69 121.176 12.32 121.206 12.39L121.226 12.46H123.616L123.596 12.34C123.586 12.3 123.386 11.37 122.656 10.42C121.976 9.55001 120.706 8.51001 118.476 8.51001C115.266 8.51001 112.926 10.75 112.926 13.84C112.916 16.93 115.246 19.17 118.456 19.17Z" fill="white"/>
<path d="M125.025 10.96H128.205V18.89H130.525V10.96H133.705V8.79001H125.025V10.96Z" fill="white"/>
<path d="M140.626 19.17C143.736 19.17 146.176 16.83 146.176 13.84C146.176 10.85 143.736 8.51001 140.626 8.51001C137.516 8.51001 135.076 10.85 135.076 13.84C135.076 16.83 137.516 19.17 140.626 19.17ZM137.546 13.84C137.546 12.01 138.846 10.69 140.626 10.69C142.416 10.69 143.706 12.02 143.706 13.84C143.706 15.67 142.406 16.99 140.626 16.99C138.836 16.99 137.546 15.66 137.546 13.84Z" fill="white"/>
<path d="M152.206 10.96H153.266L155.436 18.89H157.756L155.036 8.79001H150.436L147.686 18.89H150.006L152.206 10.96Z" fill="white"/>
<path d="M170.656 10.96H173.836V18.89H176.156V10.96H179.346V8.79001H170.656V10.96Z" fill="white"/>
<path d="M183.837 15.88L183.957 14.84V8.79001H181.637V18.89H184.417L188.407 11.79L188.287 12.83V18.89H190.607V8.79001H187.837L183.837 15.88Z" fill="white"/>
<path d="M201.846 16.71H195.916V14.78H200.606V12.75H195.916V10.96H201.846V8.79001H193.596V18.89H201.846V16.71Z" fill="white"/>
<path d="M168.605 16.71H162.675V14.78H167.365V12.75H162.675V10.96H168.605V8.79001H160.355V18.89H168.605V16.71Z" fill="white"/>
<path d="M118.735 30.15H117.525L115.825 25.76H113.355L115.955 32.27L115.975 32.33H117.875L116.465 35.86H118.875L122.835 25.76H120.435L118.735 30.15Z" fill="white"/>
<path d="M130.925 25.76H126.315L124.265 33.68H123.115V37.63H125.365V35.86H131.885V37.63H134.135V33.68H132.985L130.925 25.76ZM129.225 27.94L130.725 33.68H126.525L128.025 27.94H129.225Z" fill="white"/>
<path d="M141.995 31.42H141.645L139.545 25.76H136.195V35.86H138.515V29.25L138.405 28.22L140.385 33.6H143.275L145.285 28.21L145.165 29.24V35.86H147.485V25.76H144.135L141.995 31.42Z" fill="white"/>
<path d="M154.777 30.15H153.567L151.867 25.76H149.387L151.987 32.27L152.017 32.33H153.917L152.507 35.86H154.907L158.877 25.76H156.467L154.777 30.15Z" fill="white"/>
<path d="M165.247 25.76H160.727V35.86H163.047V32.89H165.247C167.597 32.89 169.307 31.39 169.307 29.32C169.307 27.26 167.607 25.76 165.247 25.76ZM163.047 27.94H165.177C166.247 27.94 166.917 28.47 166.917 29.33C166.917 30.18 166.247 30.72 165.177 30.72H163.047V27.94Z" fill="white"/>
<path d="M170.256 27.94H173.446V35.86H175.766V27.94H178.946V25.76H170.256V27.94Z" fill="white"/>
<path d="M183.155 32.74L183.285 31.7V25.76H180.965V35.86H183.735L187.735 28.76L187.615 29.8V35.86H189.935V25.76H187.155L183.155 32.74Z" fill="white"/>
<path d="M199.075 25.76L195.075 32.81L195.195 31.76V25.76H192.875V35.86H195.645L199.645 28.75L199.525 29.79V35.86H201.845V25.76H199.075Z" fill="white"/>
</g>
<defs>
<clipPath id="clip0">
<rect width="200.97" height="44.57" fill="white" transform="translate(0.875)"/>
</clipPath>
</defs>
</svg>
