<svg width="1872" height="565" viewBox="0 0 1872 565" fill="none" xmlns="http://www.w3.org/2000/svg">
<g opacity="0.2">
<path d="M231.351 181.078L196.051 145.852L232.041 109.974L192.435 70.4915L156.445 106.351L121.144 71.1616L85.8076 106.351L49.8713 70.4915L10.2107 109.974L46.1832 145.852L10.8829 181.078L46.1832 216.268L10.2107 252.128L49.8713 291.61L85.8076 255.75L121.144 290.94L156.445 255.75L192.435 291.61L232.041 252.128L196.051 216.268L231.351 181.078ZM121.144 234.669L67.3308 181.06L121.144 127.415L174.921 181.06L121.144 234.669Z" fill="#E6E6E7"/>
<path d="M242.251 407.558L121.126 286.811L0 407.558L121.126 528.305L242.251 407.558ZM38.9521 407.558L96.6717 383.162L121.144 325.641L145.616 383.162L203.318 407.558L145.598 431.954L121.126 489.493L96.6535 431.954L38.9521 407.558Z" fill="#E6E6E7"/>
<path d="M242.251 -45.456L121.126 -166.203L0 -45.456L121.126 75.291L242.251 -45.456ZM38.9521 -45.456L96.6717 -69.8517L121.144 -127.373L145.616 -69.8517L203.318 -45.456L145.616 -21.0603L121.144 36.4789L96.6535 -21.0603L38.9521 -45.456Z" fill="#E6E6E7"/>
</g>
<g opacity="0.2">
<path d="M556.66 305.103L521.36 269.877L557.351 233.998L517.745 194.516L481.754 230.376L446.454 195.186L411.117 230.376L375.181 194.516L335.52 233.998L371.493 269.877L336.192 305.103L371.493 340.293L335.52 376.153L375.181 415.635L411.117 379.775L446.454 414.965L481.754 379.775L517.745 415.635L557.351 376.153L521.36 340.293L556.66 305.103ZM446.454 358.694L392.64 305.085L446.454 251.439L500.231 305.085L446.454 358.694Z" fill="#E6E6E7"/>
<path d="M567.561 531.582L446.435 410.835L325.31 531.582L446.435 652.329L567.561 531.582ZM364.262 531.582L421.981 507.187L446.453 449.666L470.926 507.187L528.627 531.582L470.908 555.978L446.435 613.517L421.963 555.978L364.262 531.582Z" fill="#E6E6E7"/>
<path d="M567.561 78.5687L446.435 -42.1782L325.31 78.5687L446.435 199.316L567.561 78.5687ZM364.262 78.5687L421.981 54.173L446.453 -3.34794L470.926 54.173L528.627 78.5687L470.926 102.964L446.453 160.504L421.963 102.964L364.262 78.5687Z" fill="#E6E6E7"/>
</g>
<g opacity="0.2">
<path d="M882.834 181.078L847.533 145.852L883.524 109.974L843.918 70.4915L807.927 106.351L772.627 71.1616L737.29 106.351L701.354 70.4915L661.693 109.974L697.666 145.852L662.366 181.078L697.666 216.268L661.693 252.128L701.354 291.61L737.29 255.75L772.627 290.94L807.927 255.75L843.918 291.61L883.524 252.128L847.533 216.268L882.834 181.078ZM772.627 234.669L718.813 181.06L772.627 127.415L826.404 181.06L772.627 234.669Z" fill="#E6E6E7"/>
<path d="M893.734 407.558L772.608 286.811L651.483 407.558L772.608 528.305L893.734 407.558ZM690.435 407.558L748.154 383.162L772.627 325.641L797.099 383.162L854.8 407.558L797.081 431.954L772.608 489.493L748.136 431.954L690.435 407.558Z" fill="#E6E6E7"/>
<path d="M893.734 -45.456L772.608 -166.203L651.483 -45.456L772.608 75.291L893.734 -45.456ZM690.435 -45.456L748.154 -69.8517L772.627 -127.373L797.099 -69.8517L854.8 -45.456L797.099 -21.0603L772.627 36.4789L748.136 -21.0603L690.435 -45.456Z" fill="#E6E6E7"/>
</g>
<g opacity="0.2">
<path d="M1208.14 305.103L1172.84 269.877L1208.83 233.998L1169.23 194.516L1133.24 230.376L1097.94 195.186L1062.6 230.376L1026.66 194.516L987.003 233.998L1022.98 269.877L987.676 305.103L1022.98 340.293L987.003 376.153L1026.66 415.635L1062.6 379.775L1097.94 414.965L1133.24 379.775L1169.23 415.635L1208.83 376.153L1172.84 340.293L1208.14 305.103ZM1097.94 358.694L1044.12 305.085L1097.94 251.439L1151.71 305.085L1097.94 358.694Z" fill="#E6E6E7"/>
<path d="M1219.04 531.582L1097.92 410.835L976.793 531.582L1097.92 652.329L1219.04 531.582ZM1015.75 531.582L1073.46 507.187L1097.94 449.666L1122.41 507.187L1180.11 531.582L1122.39 555.978L1097.92 613.517L1073.45 555.978L1015.75 531.582Z" fill="#E6E6E7"/>
<path d="M1219.04 78.5687L1097.92 -42.1782L976.793 78.5687L1097.92 199.316L1219.04 78.5687ZM1015.75 78.5687L1073.46 54.173L1097.94 -3.34794L1122.41 54.173L1180.11 78.5687L1122.41 102.964L1097.94 160.504L1073.45 102.964L1015.75 78.5687Z" fill="#E6E6E7"/>
</g>
<g opacity="0.2">
<path d="M1535.18 181.078L1499.88 145.852L1535.87 109.974L1496.27 70.4915L1460.27 106.351L1424.97 71.1616L1389.64 106.351L1353.7 70.4915L1314.04 109.974L1350.01 145.852L1314.71 181.078L1350.01 216.268L1314.04 252.128L1353.7 291.61L1389.64 255.75L1424.97 290.94L1460.27 255.75L1496.27 291.61L1535.87 252.128L1499.88 216.268L1535.18 181.078ZM1424.97 234.669L1371.16 181.06L1424.97 127.415L1478.75 181.06L1424.97 234.669Z" fill="#E6E6E7"/>
<path d="M1546.08 407.558L1424.96 286.811L1303.83 407.558L1424.96 528.305L1546.08 407.558ZM1342.78 407.558L1400.5 383.162L1424.97 325.641L1449.45 383.162L1507.15 407.558L1449.43 431.954L1424.96 489.493L1400.48 431.954L1342.78 407.558Z" fill="#E6E6E7"/>
<path d="M1546.08 -45.456L1424.96 -166.203L1303.83 -45.456L1424.96 75.291L1546.08 -45.456ZM1342.78 -45.456L1400.5 -69.8517L1424.97 -127.373L1449.45 -69.8517L1507.15 -45.456L1449.45 -21.0603L1424.97 36.4789L1400.48 -21.0603L1342.78 -45.456Z" fill="#E6E6E7"/>
</g>
<g opacity="0.2">
<path d="M1860.49 305.103L1825.19 269.877L1861.18 233.998L1821.58 194.516L1785.58 230.376L1750.28 195.186L1714.95 230.376L1679.01 194.516L1639.35 233.998L1675.32 269.877L1640.02 305.103L1675.32 340.293L1639.35 376.153L1679.01 415.635L1714.95 379.775L1750.28 414.965L1785.58 379.775L1821.58 415.635L1861.18 376.153L1825.19 340.293L1860.49 305.103ZM1750.28 358.694L1696.47 305.085L1750.28 251.439L1804.06 305.085L1750.28 358.694Z" fill="#E6E6E7"/>
<path d="M1871.39 531.582L1750.27 410.835L1629.14 531.582L1750.27 652.329L1871.39 531.582ZM1668.09 531.582L1725.81 507.187L1750.28 449.666L1774.76 507.187L1832.46 531.582L1774.74 555.978L1750.27 613.517L1725.79 555.978L1668.09 531.582Z" fill="#E6E6E7"/>
<path d="M1871.39 78.5687L1750.27 -42.1782L1629.14 78.5687L1750.27 199.316L1871.39 78.5687ZM1668.09 78.5687L1725.81 54.173L1750.28 -3.34794L1774.76 54.173L1832.46 78.5687L1774.76 102.964L1750.28 160.504L1725.79 102.964L1668.09 78.5687Z" fill="#E6E6E7"/>
</g>
</svg>
