<svg width="72" height="89" viewBox="0 0 72 89" fill="none" xmlns="http://www.w3.org/2000/svg">
<rect width="72" height="72" fill="#FF4646"/>
<path d="M36.4573 38.624L11 63.8121L36.4573 89.0002L61.9145 63.8121L36.4573 38.624Z" fill="#FF4646"/>
<path fill-rule="evenodd" clip-rule="evenodd" d="M25 33.6569L25.0004 33.6565V33.6499L25.0037 33.6532L30.6569 28L36.3072 33.6504L41.9576 28L47.6145 33.6569L47.6012 33.6702V39.3H47.6016L44.7766 42.125L41.9528 44.9488L41.9543 44.9503L36.2975 50.6072L30.6406 44.9503L30.6455 44.9454L27.825 42.1249L25 39.2999H25.0004V33.6572L25 33.6569ZM41.9516 39.3076L41.9508 39.3069V44.9468L41.9516 44.9475V39.3076ZM41.9439 39.3L41.9438 39.2999H36.3039L36.304 39.3H41.9439ZM30.65 39.3069V44.9409L30.6508 44.9402V39.3076L30.65 39.3069Z" fill="white"/>
</svg>
