<svg width="28" height="30" viewBox="0 0 28 30" fill="none" xmlns="http://www.w3.org/2000/svg">
<path fill-rule="evenodd" clip-rule="evenodd" d="M19.8543 29.3069H8.14571C3.66554 29.3069 0 25.661 0 21.2047V8.79504C0 4.33882 3.66554 0.692871 8.14571 0.692871H19.8543C24.3345 0.692871 28 4.33882 28 8.79504V21.2047C28 25.661 24.3345 29.3069 19.8543 29.3069ZM19.8543 27.1663C21.4463 27.1663 22.9489 26.5435 24.0853 25.4132C25.2217 24.2828 25.8479 22.7883 25.8479 21.2047V8.79504C25.8479 7.2115 25.2217 5.71694 24.0853 4.58662C22.9489 3.45629 21.4463 2.8335 19.8543 2.8335H8.14571C6.55366 2.8335 5.05107 3.45629 3.91467 4.58662C2.77827 5.71694 2.15214 7.2115 2.15214 8.79504V21.2047C2.15214 22.7883 2.77827 24.2828 3.91467 25.4132C5.05107 26.5435 6.55366 27.1663 8.14571 27.1663H19.8543ZM21.7539 14.8891C21.7539 19.125 18.3021 22.5584 14.0434 22.5584C9.78475 22.5584 6.33293 19.125 6.33293 14.8891C6.33293 10.6532 9.78475 7.21984 14.0434 7.21984C18.3021 7.21984 21.7539 10.6538 21.7539 14.8891ZM14.0062 9.87339C11.2177 9.87339 8.95751 12.1215 8.95751 14.8951C8.95751 17.6686 11.2177 19.9168 14.0062 19.9168C16.7947 19.9168 19.0548 17.6686 19.0548 14.8951C19.0548 12.1221 16.7947 9.87339 14.0062 9.87339ZM22.2442 5.32231C23.2316 5.52469 23.8672 6.48496 23.6637 7.46714C23.4603 8.44933 22.4948 9.08149 21.5074 8.87912C20.5199 8.67674 19.8843 7.71647 20.0878 6.73428C20.2913 5.7521 21.2567 5.11994 22.2442 5.32231Z" fill="#FEFEFE"/>
</svg>
