<svg width="76" height="49" viewBox="0 0 76 49" fill="none" xmlns="http://www.w3.org/2000/svg">
<g clip-path="url(#clip0)">
<path d="M13.5171 6.73272C13.5171 7.5117 13.2942 8.25408 12.8483 8.94941C12.4025 9.64474 11.7945 10.1571 11.0243 10.476C10.7811 10.5753 10.4315 10.6381 9.97047 10.6747C9.5094 10.7113 9.2206 10.7322 9.099 10.7479C8.9774 10.7635 8.9014 10.7897 8.86594 10.8315C8.83047 10.8733 8.81527 10.957 8.81527 11.0825C8.83047 11.2916 8.83554 11.6 8.83554 12.0026C8.83554 12.4627 8.83047 12.8025 8.81527 13.0273C8.81527 13.1946 8.8102 13.4089 8.80514 13.6651C8.80007 13.9213 8.80007 14.2245 8.81527 14.5748C8.81527 14.9355 8.6582 15.1185 8.34914 15.1185L8.187 15.0976C8.12114 15.0819 8.00967 15.0767 7.86274 15.0767L7.17367 15.0976C6.80887 15.0715 6.62647 14.8885 6.62647 14.5539L6.6062 8.21749C6.6062 4.47943 6.60114 2.48755 6.58594 2.2366C6.58594 2.13727 6.60114 2.06408 6.6366 2.01702C6.67207 1.96997 6.73287 1.9386 6.82914 1.92292C7.07234 1.85496 7.54354 1.81836 8.2478 1.81836C8.9774 1.81836 9.6918 1.8445 10.3961 1.90201C11.1814 1.95952 11.8705 2.25229 12.4633 2.79078C13.0561 3.32926 13.3955 3.99323 13.4766 4.78789C13.5019 4.99701 13.5171 5.39434 13.5171 5.97988V6.73272ZM8.81527 8.13384C8.81527 8.17566 8.83047 8.21749 8.86594 8.25931C8.9014 8.30114 8.9318 8.32728 8.95714 8.34296C9.11927 8.38479 9.32194 8.4057 9.56514 8.4057C10.3201 8.4057 10.847 8.15475 11.1459 7.65286C11.3081 7.38623 11.4145 7.10391 11.4601 6.80592C11.5057 6.50792 11.531 6.15241 11.531 5.74985C11.5158 5.43094 11.3739 5.09634 11.0953 4.74607C10.8166 4.39579 10.5126 4.19712 10.1731 4.13961C9.97047 4.11347 9.74754 4.09779 9.50434 4.09779C9.26114 4.09779 9.11927 4.09779 9.07874 4.09779C8.87607 4.09779 8.77474 4.20758 8.77474 4.43238C8.80007 5.07543 8.81527 6.30925 8.81527 8.13384Z" fill="#282828"/>
<path d="M15.2808 4.80874C15.4277 4.16569 15.6 3.62197 15.7874 3.17759C15.9749 2.73321 16.3397 2.30973 16.8717 1.9124C17.4037 1.51507 18.1586 1.31641 19.1314 1.31641C19.9421 1.31641 20.5805 1.53076 21.0466 1.95423C21.5128 2.3777 21.832 2.85345 22.0093 3.37626C22.1866 3.89906 22.2728 4.3539 22.2728 4.746C22.288 5.68182 22.2981 6.88427 22.3032 8.36381C22.3082 9.84335 22.3133 11.0458 22.3133 11.9816C22.3133 12.3737 22.1866 12.8599 21.9282 13.4455C21.6698 14.031 21.2797 14.5486 20.7528 14.993C20.2258 15.4374 19.5722 15.6622 18.7869 15.6622C17.2872 15.6622 16.3346 15.2021 15.9293 14.282C15.524 13.3618 15.3213 12.4365 15.3213 11.5006L15.301 10.2877C15.2605 7.90374 15.2402 6.50263 15.2402 6.08438C15.2402 5.40474 15.2554 4.97604 15.2808 4.80874ZM20.084 5.28972C20.0586 5.01263 20.013 4.76692 19.9522 4.55779C19.8914 4.34867 19.785 4.15524 19.6381 3.97225C19.3949 3.67948 19.1112 3.5331 18.7869 3.5331C18.5842 3.5331 18.3968 3.58538 18.2296 3.68994C18.0624 3.7945 17.9306 3.94611 17.8344 4.13955C17.6469 4.48983 17.5304 4.85056 17.4898 5.22698C17.4645 5.40997 17.4493 6.3667 17.4493 8.09195V10.7478V11.6888C17.4493 12.1071 17.5354 12.4208 17.7026 12.6299C17.8698 12.839 18.1536 12.9854 18.5437 13.0691C18.5842 13.0847 18.6501 13.09 18.7464 13.09C19.0301 13.09 19.2986 12.9906 19.557 12.7867C19.8154 12.5828 19.9573 12.3424 19.9826 12.0653C20.0232 11.7464 20.0536 10.9726 20.0738 9.75447C20.0941 8.53634 20.1042 7.41754 20.1042 6.39807C20.1042 5.70274 20.0992 5.33154 20.084 5.28972Z" fill="#282828"/>
<path d="M24.3416 12.9853L25.132 12.9644C25.2942 12.9644 25.3701 12.886 25.3549 12.7344C25.3397 12.0809 25.3347 11.2862 25.3347 10.3504C25.3347 9.41457 25.3296 8.49444 25.3144 7.58999C25.3144 4.97073 25.2992 3.30822 25.2739 2.61289C25.2739 2.38808 25.3094 2.24169 25.3752 2.17373C25.4411 2.10576 25.583 2.05348 25.8008 2.02734H26.7331C29.4235 2.02734 30.908 2.04826 31.1918 2.09008C31.2171 2.09008 31.2475 2.11099 31.283 2.15282C31.3184 2.19464 31.3336 2.23647 31.3336 2.27829C31.3083 2.94748 31.2931 4.27018 31.2931 6.25161C31.2931 9.63938 31.3134 11.6626 31.3539 12.3161C31.3691 12.4991 31.3944 12.6089 31.435 12.6507C31.4755 12.6926 31.592 12.7135 31.7795 12.7135C32.1291 12.7135 32.3875 12.7187 32.5496 12.7344C32.6712 12.7501 32.7624 12.7814 32.8232 12.8285C32.884 12.8755 32.9144 12.9696 32.9144 13.1108C32.9144 13.4611 32.9195 13.78 32.9347 14.0728L32.955 16.1222C32.955 16.2738 32.9296 16.3783 32.8739 16.4254C32.8182 16.4724 32.732 16.4986 32.6104 16.4986C32.352 16.4986 32.1595 16.5038 32.0227 16.5195C31.9163 16.5195 31.7846 16.5247 31.6376 16.5299C31.4907 16.5352 31.3488 16.5352 31.212 16.5195C31.0752 16.5038 30.9739 16.4515 30.908 16.3626C30.8422 16.2738 30.7915 16.1431 30.7662 15.9758V15.453C30.7662 15.3118 30.7814 15.1863 30.8067 15.0765L26.1656 15.0975C26.1808 15.1654 26.1859 15.2491 26.1859 15.3484V15.8712C26.1606 16.0385 26.1099 16.1692 26.044 16.2581C25.9782 16.347 25.8768 16.3992 25.74 16.4149C25.6032 16.4306 25.4614 16.4306 25.3144 16.4254C25.1675 16.4202 25.0357 16.4149 24.9293 16.4149C24.7925 16.3992 24.6 16.394 24.3416 16.394C24.0579 16.394 23.916 16.1065 23.916 15.5366C23.916 14.3237 23.9312 13.5866 23.9565 13.3199C23.9971 13.0847 24.1237 12.9749 24.3416 12.9853ZM27.4424 4.8714C27.4576 5.24782 27.4627 6.92602 27.4627 9.91124L27.483 12.7553C27.483 12.7971 27.4982 12.8389 27.5336 12.8808C27.5691 12.9226 27.5995 12.9435 27.6248 12.9435C28.2987 12.9435 28.8054 12.9383 29.1448 12.9226C29.2259 12.9226 29.2816 12.9017 29.3171 12.8599C29.3526 12.818 29.3678 12.7501 29.3678 12.6507C29.3526 12.3318 29.3475 11.8979 29.3475 11.3542C29.3475 10.8105 29.3424 10.2667 29.3272 9.72303C29.3272 6.98876 29.307 5.20077 29.2664 4.3486C29.2664 4.1813 29.1904 4.09765 29.0435 4.09765C28.4203 4.09765 27.9491 4.09242 27.6248 4.07674C27.4779 4.07674 27.4019 4.16039 27.4019 4.32768C27.4272 4.57863 27.4424 4.76161 27.4424 4.8714Z" fill="#282828"/>
<path d="M36.6824 14.9512L35.7096 14.9722C35.4411 14.9722 35.2485 14.9669 35.1421 14.9512C35.0053 14.9356 34.9141 14.9042 34.8685 14.8571C34.8229 14.8101 34.7925 14.716 34.7875 14.5853C34.7824 14.4546 34.7773 14.3605 34.7773 14.303V12.0445V3.84688V2.21573C34.7773 2.20004 34.7773 2.15822 34.7773 2.09025C34.7773 2.02229 34.7976 1.96478 34.8381 1.92296C34.8635 1.89682 35.0763 1.88113 35.4664 1.88113L36.7432 1.90204C36.7837 1.91773 36.8243 1.93864 36.8648 1.97524C36.9053 2.01183 36.9256 2.03275 36.9256 2.04843C36.9509 2.66011 36.9661 3.55934 36.9661 4.7461L36.9459 6.4609C36.9307 6.52887 36.9408 6.5916 36.9661 6.63865C36.9915 6.68571 37.0421 6.71185 37.108 6.71185H37.1485C37.4069 6.69616 37.6197 6.69616 37.7971 6.70139C37.9744 6.70662 38.1163 6.71185 38.2227 6.71185H38.7496C39.0181 6.71185 39.2309 6.70662 39.3779 6.69094C39.3931 6.69094 39.4387 6.67525 39.5197 6.64911C39.5349 6.38248 39.54 6.02697 39.54 5.58259C39.54 5.13821 39.5451 4.69905 39.5603 4.26512L39.5805 2.21573C39.5805 2.10594 39.6059 2.02752 39.6515 1.98569C39.6971 1.94387 39.7781 1.92296 39.8845 1.92296C40.1936 1.92296 40.4317 1.91773 40.5939 1.90204C41.0955 1.90204 41.4501 1.89682 41.668 1.88113C41.8707 1.85499 41.972 1.93864 41.972 2.13208V2.19481C41.9467 2.68102 41.9163 5.62964 41.8909 11.0407L41.8504 14.6794C41.8251 14.8885 41.7845 15.0297 41.7288 15.0976C41.6731 15.1656 41.5515 15.2074 41.364 15.2231C40.9435 15.2649 40.4672 15.2858 39.9251 15.2858C39.7883 15.2858 39.6869 15.2283 39.6109 15.1185C39.5349 15.0088 39.4995 14.8676 39.4995 14.7003L39.5197 12.0863C39.5197 10.497 39.5248 9.50885 39.54 9.11675C39.54 9.0331 39.5248 8.97036 39.4893 8.92854C39.4539 8.88671 39.3931 8.86057 39.2968 8.84489C38.3493 8.84489 37.64 8.83966 37.1688 8.82398C37.0067 8.82398 36.9256 8.91286 36.9256 9.09584L36.8648 13.592C36.8648 13.6756 36.8699 13.822 36.8749 14.0311C36.88 14.2402 36.8749 14.4441 36.8547 14.648C36.8344 14.8519 36.7787 14.9512 36.6824 14.9512Z" fill="#282828"/>
<path d="M46.8175 9.05421C46.9644 8.70393 47.39 7.60604 48.0842 5.76054C48.7783 3.91504 49.2647 2.62894 49.5332 1.90225C49.5484 1.83428 49.7764 1.79768 50.2223 1.79768H50.6479C50.7442 1.79768 50.8455 1.80291 50.962 1.80814C51.0786 1.81337 51.1799 1.81337 51.2762 1.79768C51.3978 1.782 51.4839 1.79768 51.5295 1.83951C51.5751 1.88133 51.6004 1.96498 51.6004 2.09045V5.58279V14.9305C51.6004 15.0299 51.337 15.0769 50.81 15.0769L50.0602 15.056C49.8575 15.0403 49.741 14.9933 49.7156 14.9096C49.6903 14.826 49.67 14.5959 49.6548 14.2195L49.6143 7.59036C49.6143 7.56422 49.6092 7.52239 49.594 7.47534C49.5788 7.42829 49.5586 7.40215 49.5332 7.40215C49.5079 7.40215 49.4319 7.56422 49.3103 7.88313C48.8898 8.94442 48.302 10.3874 47.5471 12.2224C46.7922 14.0575 46.3564 14.9985 46.25 15.056C46.169 15.0978 46.0068 15.1187 45.7636 15.1187C45.414 15.1187 45.0746 15.0926 44.7503 15.0351C44.5324 14.9776 44.426 14.8312 44.426 14.5959C44.4108 13.6601 44.4007 12.1858 44.3855 10.173C44.3703 8.16022 44.3652 6.16833 44.3652 4.20259C44.3652 3.51771 44.3703 3.04719 44.3754 2.79101C44.3804 2.53484 44.3855 2.38323 44.3855 2.3414C44.4108 2.14796 44.4666 2.01203 44.5476 1.93361C44.6287 1.85519 44.7655 1.80291 44.953 1.77677L45.4394 1.75586C45.6167 1.75586 45.8498 1.77154 46.1487 1.79768C46.1892 1.81337 46.2298 1.86042 46.2703 1.94407C46.3108 2.02772 46.3311 2.10614 46.3311 2.1741V2.19502L46.3108 9.66067C46.3108 9.86979 46.3311 9.97435 46.3716 9.97435C46.4122 9.97435 46.478 9.86979 46.5743 9.66067C46.6706 9.45154 46.7516 9.25288 46.8175 9.05421Z" fill="#282828"/>
<path d="M56.2811 6.06345C56.2811 6.13141 56.3672 6.16801 56.5445 6.16801C56.7624 6.16801 57.0005 6.10527 57.264 5.9798C57.5275 5.85433 57.7555 5.65043 57.9429 5.36289C58.1304 5.07535 58.2267 4.71984 58.2267 4.28591C58.2267 3.93563 58.2216 3.63241 58.2064 3.36578C58.2064 3.11483 58.2013 2.81683 58.1963 2.46655C58.1912 2.11627 58.1912 1.93852 58.2064 1.92284C58.2216 1.90715 58.4091 1.90192 58.7739 1.90192H59.6656C59.924 1.90192 60.076 1.92806 60.1216 1.97512C60.1672 2.02217 60.1976 2.17901 60.2128 2.44564V3.17757C60.2128 4.19704 60.2077 4.80349 60.1925 4.99693C60.1672 5.31584 60.0659 5.67657 59.8885 6.0739C59.7112 6.47124 59.4579 6.76924 59.1184 6.96267C59.0373 7.0045 58.9968 7.05155 58.9968 7.10906C58.9968 7.15088 59.0373 7.19793 59.1184 7.25544C59.4984 7.49071 59.8227 7.85667 60.0912 8.34288C60.3192 8.78726 60.4155 9.33098 60.3749 9.97403V12.588C60.3749 14.0101 60.3699 14.7786 60.3547 14.8884C60.3547 14.9302 60.3395 14.9773 60.3141 15.0243C60.2888 15.0714 60.2584 15.0975 60.2331 15.0975C60.1368 15.1132 59.8835 15.1184 59.4629 15.1184C58.8803 15.1184 58.5661 15.1132 58.5205 15.108C58.4749 15.1027 58.4395 15.0557 58.4192 14.972C58.3989 14.8884 58.3837 14.6584 58.3685 14.2819C58.3685 13.7121 58.3635 13.2102 58.3483 12.7763C58.3483 10.9778 58.3331 9.88515 58.3077 9.49305C58.2672 9.15845 58.1405 8.87614 57.9227 8.6461C57.7048 8.41607 57.4565 8.26446 57.1728 8.19649C56.9853 8.13898 56.8283 8.11284 56.7067 8.11284C56.4229 8.11284 56.2811 8.30105 56.2811 8.67747L56.2203 14.8047C56.2203 14.9877 56.1189 15.0923 55.9163 15.1184C55.6731 15.1446 55.3133 15.1602 54.8421 15.1602C54.4925 15.1602 54.2747 15.1393 54.1936 15.0975C54.1531 15.0714 54.1328 14.9982 54.1328 14.8884V2.21561C54.1328 2.07445 54.148 1.98035 54.1835 1.92284C54.2189 1.86533 54.2949 1.83919 54.4165 1.83919C54.8219 1.83919 55.3336 1.8235 55.9568 1.79736C56.0632 1.79736 56.1392 1.81305 56.1797 1.84964C56.2203 1.88624 56.2405 1.94898 56.2405 2.04831V2.11105C56.2405 4.21795 56.2507 5.53542 56.2811 6.06345Z" fill="#282828"/>
<path d="M65.2784 9.05421C65.4254 8.70393 65.851 7.60604 66.5451 5.76054C67.2392 3.91504 67.7256 2.62894 67.9942 1.90225C68.0094 1.83428 68.2374 1.79768 68.6832 1.79768H69.1088C69.2051 1.79768 69.3064 1.80291 69.423 1.80814C69.5395 1.81337 69.6408 1.81337 69.7371 1.79768C69.8587 1.782 69.9448 1.79768 69.9904 1.83951C70.036 1.88133 70.0614 1.96498 70.0614 2.09045V5.58279V14.9305C70.0614 15.0299 69.7979 15.0769 69.271 15.0769L68.5211 15.056C68.3184 15.0403 68.2019 14.9933 68.1766 14.9096C68.1512 14.826 68.131 14.5959 68.1158 14.2195L68.0752 7.59036C68.0752 7.56422 68.0702 7.52239 68.055 7.47534C68.0398 7.42829 68.0195 7.40215 67.9942 7.40215C67.9688 7.40215 67.8928 7.56422 67.7712 7.88313C67.3507 8.94442 66.763 10.3874 66.008 12.2224C65.2531 14.0575 64.8174 14.9985 64.711 15.056C64.6299 15.0978 64.4678 15.1187 64.2246 15.1187C63.875 15.1187 63.5355 15.0926 63.2112 15.0351C62.9934 14.9776 62.887 14.8312 62.887 14.5959C62.8718 13.6601 62.8616 12.1858 62.8464 10.173C62.8312 8.16022 62.8262 6.16833 62.8262 4.20259C62.8262 3.51771 62.8312 3.04719 62.8363 2.79101C62.8414 2.53484 62.8464 2.38323 62.8464 2.3414C62.8718 2.14796 62.9275 2.01203 63.0086 1.93361C63.0896 1.85519 63.2264 1.80291 63.4139 1.77677L63.9003 1.75586C64.0776 1.75586 64.3107 1.77154 64.6096 1.79768C64.6502 1.81337 64.6907 1.86042 64.7312 1.94407C64.7718 2.02772 64.792 2.10614 64.792 2.1741V2.19502L64.7718 9.66067C64.7718 9.86979 64.792 9.97435 64.8326 9.97435C64.8731 9.97435 64.939 9.86979 65.0352 9.66067C65.1315 9.45154 65.2075 9.25288 65.2784 9.05421Z" fill="#282828"/>
<path d="M4.75283 27.0175C4.79336 27.0175 4.94536 26.6673 5.20883 25.9615C5.4723 25.2557 5.64456 24.8008 5.72563 24.5917C5.95363 23.9487 6.14616 23.4468 6.2931 23.086C6.3995 22.8612 6.5515 22.7515 6.73896 22.7515C6.80483 22.7515 6.86056 22.7567 6.9011 22.7724L8.38056 23.107C8.50216 23.1226 8.56296 23.1697 8.56296 23.2533C8.56296 23.2795 8.54776 23.3213 8.52243 23.3788C8.41603 23.6298 7.69656 25.5223 6.37416 29.0565C5.05176 32.5906 4.2715 34.6923 4.0435 35.3615C3.98776 35.5706 3.89656 35.7745 3.75976 35.968C3.71923 36.0359 3.63816 36.0725 3.51656 36.0725L2.98963 35.968C2.51843 35.8738 2.19923 35.8007 2.0371 35.7588C1.87496 35.717 1.7939 35.5654 1.7939 35.2988C1.7939 35.2151 1.79896 35.1524 1.81416 35.1106L3.71923 29.4643C3.4507 29.0199 2.65016 27.6397 1.32776 25.3236L0.658963 24.1735C0.537363 23.9644 0.476562 23.818 0.476562 23.7343C0.476562 23.6768 0.512029 23.6193 0.577896 23.5566C0.643762 23.4938 0.740029 23.4206 0.861629 23.337L1.7939 22.7096C1.9003 22.6521 1.9763 22.626 2.01683 22.626C2.13843 22.626 2.26003 22.7253 2.38163 22.9187L2.8275 23.7343C4.0587 25.9249 4.6971 27.0175 4.75283 27.0175Z" fill="#282828"/>
<path d="M9.59748 33.8979L10.3879 33.877C10.55 33.877 10.626 33.7986 10.6108 33.647C10.5956 32.9935 10.5905 32.1988 10.5905 31.263C10.5905 30.3272 10.5855 29.407 10.5703 28.5026C10.5703 25.8833 10.5551 24.2208 10.5297 23.5255C10.5297 23.3007 10.5652 23.1543 10.6311 23.0863C10.6969 23.0184 10.8388 22.9661 11.0567 22.9399H11.9889C14.6793 22.9399 16.1639 22.9609 16.4476 23.0027C16.4729 23.0027 16.5033 23.0236 16.5388 23.0654C16.5743 23.1072 16.5895 23.1491 16.5895 23.1909C16.5641 23.8601 16.5489 25.1828 16.5489 27.1642C16.5489 30.552 16.5692 32.5752 16.6097 33.2287C16.6249 33.4117 16.6503 33.5215 16.6908 33.5633C16.7313 33.6052 16.8479 33.6261 17.0353 33.6261C17.3849 33.6261 17.6433 33.6313 17.8055 33.647C17.9271 33.6627 18.0183 33.694 18.0791 33.7411C18.1399 33.7881 18.1703 33.8822 18.1703 34.0234C18.1703 34.3737 18.1753 34.6926 18.1905 34.9854L18.2108 37.0348C18.2108 37.1864 18.1855 37.2909 18.1297 37.338C18.074 37.385 17.9879 37.4112 17.8663 37.4112C17.6079 37.4112 17.4153 37.4164 17.2785 37.4321C17.1721 37.4321 17.0404 37.4373 16.8935 37.4425C16.7465 37.4478 16.6047 37.4478 16.4679 37.4321C16.3311 37.4164 16.2297 37.3641 16.1639 37.2752C16.098 37.1864 16.0473 37.0557 16.022 36.8884V36.3656C16.022 36.2244 16.0372 36.0989 16.0625 35.9891L11.4215 36.0101C11.4367 36.078 11.4417 36.1617 11.4417 36.261V36.7838C11.4164 36.9511 11.3657 37.0818 11.2999 37.1707C11.234 37.2596 11.1327 37.3118 10.9959 37.3275C10.8591 37.3432 10.7172 37.3432 10.5703 37.338C10.4233 37.3328 10.2916 37.3275 10.1852 37.3275C10.0484 37.3118 9.85588 37.3066 9.59748 37.3066C9.31374 37.3066 9.17188 37.0191 9.17188 36.4492C9.17188 35.2363 9.18707 34.4992 9.21241 34.2325C9.25294 33.9973 9.37961 33.8875 9.59748 33.8979ZM12.6983 25.784C12.7135 26.1604 12.7185 27.8386 12.7185 30.8238L12.7388 33.6679C12.7388 33.7097 12.754 33.7515 12.7895 33.7934C12.8249 33.8352 12.8553 33.8561 12.8807 33.8561C13.5545 33.8561 14.0612 33.8509 14.4007 33.8352C14.4817 33.8352 14.5375 33.8143 14.5729 33.7725C14.6084 33.7306 14.6236 33.6627 14.6236 33.5633C14.6084 33.2444 14.6033 32.8105 14.6033 32.2668C14.6033 31.7231 14.5983 31.1793 14.5831 30.6356C14.5831 27.9014 14.5628 26.1134 14.5223 25.2612C14.5223 25.0939 14.4463 25.0102 14.2993 25.0102C13.6761 25.0102 13.2049 25.005 12.8807 24.9893C12.7337 24.9893 12.6577 25.073 12.6577 25.2403C12.6831 25.4912 12.6983 25.6742 12.6983 25.784Z" fill="#282828"/>
<path d="M22.7702 22.8144C22.8108 22.8144 23.0996 23.6142 23.6417 25.2088C24.1838 26.8034 24.5588 27.9535 24.7766 28.6489C24.8172 28.8318 24.8628 28.9207 24.9185 28.9207C24.959 28.9207 24.9996 28.858 25.0401 28.7325L26.8438 22.898C26.859 22.83 26.9097 22.7725 26.9958 22.7307C27.082 22.6889 27.1428 22.668 27.1681 22.668H28.911C28.9262 22.668 28.9516 22.6732 28.9921 22.6889C29.0326 22.7046 29.0732 22.7255 29.1137 22.7621C29.1542 22.7987 29.1745 22.8405 29.1745 22.898C29.362 24.7226 29.6254 27.3314 29.9548 30.7192C30.2841 34.1069 30.4462 35.8374 30.431 35.9054C30.431 36.0047 30.2182 36.0831 29.7926 36.1459C29.367 36.2086 29.1289 36.24 29.0732 36.24C28.8148 36.2661 28.6425 36.2348 28.5462 36.1459C28.45 36.057 28.3892 35.8688 28.3638 35.5917C28.3233 35.0898 28.1865 33.924 27.9585 32.0889C27.7305 30.2539 27.5582 29.0096 27.4518 28.3561C27.4366 28.2568 27.4113 28.2097 27.3708 28.2097C27.3454 28.2097 27.31 28.2672 27.2694 28.377C27.0262 29.156 26.7678 30.0238 26.4892 30.9701C26.2105 31.9164 26.0129 32.6169 25.8913 33.0613C25.8254 33.2025 25.7697 33.2757 25.7292 33.2914C25.5012 33.3593 25.258 33.3959 24.9996 33.3959C24.7817 33.3959 24.6094 33.3802 24.4726 33.3541C24.3358 33.3384 24.2345 33.2861 24.1585 33.1973C24.0825 33.1084 24.0217 32.9829 23.966 32.8313C23.8444 32.4287 23.6924 31.9687 23.51 31.4615C23.3276 30.9544 23.2009 30.5937 23.135 30.3846C22.7854 29.4069 22.5676 28.79 22.4865 28.5234C22.4865 28.4972 22.4764 28.4659 22.4561 28.4293C22.4358 28.3927 22.4206 28.377 22.4054 28.377C22.3649 28.377 22.3446 28.4816 22.3446 28.6907C22.2889 29.5533 22.2078 30.7035 22.1014 32.1307C21.995 33.558 21.8988 34.7604 21.8177 35.7381C21.8025 35.9054 21.7163 35.989 21.5542 35.989C21.4579 35.989 21.2857 35.9995 21.0374 36.0204C20.7892 36.0413 20.5662 36.0465 20.3787 36.0309C19.9886 35.9734 19.791 35.7642 19.791 35.4035C19.791 35.3198 19.7961 35.2519 19.8113 35.1944C19.8771 34.75 20.2014 30.7192 20.7841 23.1071C20.7841 22.9137 20.8803 22.8144 21.0678 22.8144H21.7366H22.7702Z" fill="#282828"/>
<path d="M35.6395 27.0175C35.6801 27.0175 35.8321 26.6673 36.0956 25.9615C36.359 25.2557 36.5313 24.8008 36.6123 24.5917C36.8403 23.9487 37.0329 23.4468 37.1798 23.086C37.2862 22.8612 37.4382 22.7515 37.6257 22.7515C37.6915 22.7515 37.7473 22.7567 37.7878 22.7724L39.2673 23.107C39.3889 23.1226 39.4497 23.1697 39.4497 23.2533C39.4497 23.2795 39.4345 23.3213 39.4091 23.3788C39.3027 23.6298 38.5833 25.5223 37.2609 29.0565C35.9385 32.5906 35.1582 34.6923 34.9302 35.3615C34.8745 35.5706 34.7833 35.7745 34.6465 35.968C34.6059 36.0359 34.5249 36.0725 34.4033 36.0725L33.8763 35.968C33.4051 35.8686 33.0859 35.8007 32.9238 35.7588C32.7617 35.717 32.6806 35.5654 32.6806 35.2988C32.6806 35.2151 32.6857 35.1524 32.7009 35.1106L34.6059 29.4643C34.3374 29.0199 33.5369 27.6397 32.2145 25.3236L31.5457 24.1735C31.4241 23.9644 31.3633 23.818 31.3633 23.7343C31.3633 23.6768 31.3987 23.6193 31.4646 23.5566C31.5305 23.4938 31.6267 23.4206 31.7483 23.337L32.6806 22.7096C32.787 22.6521 32.863 22.626 32.9035 22.626C33.0251 22.626 33.1467 22.7253 33.2683 22.9187L33.7142 23.7343C34.9454 25.9249 35.5838 27.0175 35.6395 27.0175Z" fill="#282828"/>
<path d="M48.023 27.6448C48.023 28.4238 47.8001 29.1662 47.3542 29.8615C46.9083 30.5569 46.3003 31.0692 45.5302 31.3881C45.287 31.4874 44.9374 31.5502 44.4763 31.5868C44.0153 31.6234 43.7265 31.6443 43.6049 31.66C43.4833 31.6757 43.4073 31.7018 43.3718 31.7436C43.3363 31.7854 43.3211 31.8691 43.3211 31.9946C43.3363 32.2037 43.3414 32.5121 43.3414 32.9147C43.3414 33.3748 43.3363 33.7146 43.3211 33.9394C43.3211 34.1067 43.3161 34.321 43.311 34.5772C43.3059 34.8334 43.3059 35.1366 43.3211 35.4869C43.3211 35.8476 43.1641 36.0306 42.855 36.0306L42.6929 36.0097C42.627 35.994 42.5155 35.9888 42.3686 35.9888L41.6795 36.0097C41.3147 35.9836 41.1323 35.8006 41.1323 35.466L41.1121 29.1296C41.1121 25.3915 41.107 23.3997 41.0918 23.1487C41.0918 23.0494 41.107 22.9762 41.1425 22.9291C41.1779 22.8821 41.2387 22.8507 41.335 22.835C41.5782 22.7671 42.0494 22.7305 42.7537 22.7305C43.4833 22.7305 44.1977 22.7566 44.9019 22.8141C45.6873 22.8716 46.3763 23.1644 46.9691 23.7029C47.5619 24.2414 47.9014 24.9053 47.9825 25.7C48.0078 25.9091 48.023 26.3065 48.023 26.892V27.6448ZM43.3211 29.0459C43.3211 29.0878 43.3363 29.1296 43.3718 29.1714C43.4073 29.2132 43.4377 29.2394 43.463 29.2551C43.6251 29.2969 43.8278 29.3178 44.071 29.3178C44.8259 29.3178 45.3529 29.0669 45.6518 28.565C45.8139 28.2983 45.9203 28.016 45.9659 27.718C46.0115 27.42 46.0369 27.0645 46.0369 26.662C46.0217 26.343 45.8798 26.0085 45.6011 25.6582C45.3225 25.3079 45.0185 25.1092 44.679 25.0517C44.4763 25.0256 44.2534 25.0099 44.0102 25.0099C43.767 25.0099 43.6251 25.0099 43.5846 25.0099C43.3819 25.0099 43.2806 25.1197 43.2806 25.3445C43.3059 25.9875 43.3211 27.2214 43.3211 29.0459Z" fill="#282828"/>
<path d="M49.44 22.7512C49.6578 22.7094 51.1272 22.6885 53.8581 22.6885C54.5725 22.6885 55.0792 22.6937 55.368 22.6989C55.6568 22.7042 55.829 22.7094 55.8848 22.7094C56.0469 22.7251 56.1584 22.7564 56.2192 22.814C56.28 22.8715 56.3104 22.9656 56.3104 23.1067V23.1904C56.2952 23.342 56.2952 23.4779 56.3002 23.5877C56.3053 23.6975 56.3104 23.7916 56.3104 23.8596C56.3104 24.0425 56.3053 24.1732 56.2901 24.2569C56.2344 24.6176 56.0114 24.8006 55.6213 24.8006C55.4186 24.7849 55.1197 24.7954 54.7296 24.8215L54.0608 24.8424C53.924 24.8424 53.8581 24.8999 53.8581 25.0097V25.0725V28.2093V35.7795C53.8581 35.9311 53.7821 36.0095 53.6352 36.0095C53.3261 36.0252 52.86 36.0304 52.2368 36.0304C51.953 36.0304 51.8112 35.8788 51.8112 35.5704C51.7858 34.76 51.7656 33.0871 51.7504 30.5515C51.7352 28.0159 51.7301 26.3063 51.7301 25.428C51.7301 25.36 51.725 25.2293 51.7098 25.0411C51.6946 24.8529 51.649 24.7588 51.568 24.7588C51.4869 24.7588 51.188 24.764 50.6661 24.7797C50.1442 24.7954 49.749 24.7954 49.4805 24.7797C49.4552 24.7797 49.4248 24.7536 49.3893 24.696C49.3538 24.6385 49.3386 24.5915 49.3386 24.5497L49.3184 23.5668C49.3184 23.0963 49.3589 22.8244 49.44 22.7512Z" fill="#282828"/>
<path d="M61.0128 29.9663C61.1597 29.616 61.5854 28.5182 62.2795 26.6727C62.9736 24.8272 63.46 23.5411 63.7285 22.8144C63.7437 22.7464 63.9717 22.7098 64.4176 22.7098H64.8432C64.9395 22.7098 65.0408 22.715 65.1574 22.7202C65.2739 22.7255 65.3752 22.7255 65.4715 22.7098C65.5931 22.6941 65.6792 22.7098 65.7248 22.7516C65.7704 22.7934 65.7957 22.8771 65.7957 23.0026V26.4949V35.8426C65.7957 35.942 65.5323 35.989 65.0054 35.989L64.2555 35.9681C64.0528 35.9524 63.9363 35.9054 63.9109 35.8217C63.8856 35.7381 63.8654 35.508 63.8502 35.1316L63.8096 28.5025C63.8096 28.4763 63.8045 28.4345 63.7893 28.3874C63.7741 28.3404 63.7539 28.3143 63.7285 28.3143C63.7032 28.3143 63.6272 28.4763 63.5056 28.7952C63.0851 29.8565 62.4973 31.2995 61.7424 33.1345C60.9875 34.9696 60.5517 35.9106 60.4453 35.9681C60.3643 36.0099 60.2021 36.0309 59.9589 36.0309C59.6093 36.0309 59.2699 36.0047 58.9456 35.9472C58.7277 35.8897 58.6213 35.7433 58.6213 35.508C58.6061 34.5722 58.596 33.0979 58.5808 31.0851C58.5656 29.0723 58.5605 27.0804 58.5605 25.1147C58.5605 24.4298 58.5656 23.9593 58.5707 23.7031C58.5757 23.4469 58.5808 23.2953 58.5808 23.2535C58.6061 23.0601 58.6619 22.9241 58.7429 22.8457C58.824 22.7673 58.9608 22.715 59.1483 22.6889L59.6347 22.668C59.812 22.668 60.0451 22.6837 60.344 22.7098C60.3845 22.7255 60.4251 22.7725 60.4656 22.8562C60.5061 22.9398 60.5264 23.0182 60.5264 23.0862V23.1071L60.5061 30.5728C60.5061 30.7819 60.5264 30.8865 60.5669 30.8865C60.6075 30.8865 60.6733 30.7819 60.7696 30.5728C60.8659 30.3637 60.9469 30.165 61.0128 29.9663Z" fill="#282828"/>
<path d="M70.7413 29.9663C70.8883 29.616 71.3139 28.5182 72.008 26.6727C72.7021 24.8272 73.1885 23.5411 73.4571 22.8144C73.4723 22.7464 73.7003 22.7098 74.1461 22.7098H74.5717C74.668 22.7098 74.7693 22.715 74.8859 22.7202C75.0024 22.7255 75.1037 22.7255 75.2 22.7098C75.3216 22.6941 75.4077 22.7098 75.4533 22.7516C75.4989 22.7934 75.5243 22.8771 75.5243 23.0026V26.4949V35.8426C75.5243 35.942 75.2608 35.989 74.7339 35.989L73.984 35.9681C73.7813 35.9524 73.6648 35.9054 73.6395 35.8217C73.6141 35.7381 73.5939 35.508 73.5787 35.1316L73.5381 28.5025C73.5381 28.4763 73.5331 28.4345 73.5179 28.3874C73.5027 28.3404 73.4824 28.3143 73.4571 28.3143C73.4317 28.3143 73.3557 28.4763 73.2341 28.7952C72.8136 29.8565 72.2259 31.2995 71.4709 33.1345C70.716 34.9696 70.2803 35.9106 70.1739 35.9681C70.0928 36.0099 69.9307 36.0309 69.6875 36.0309C69.3379 36.0309 68.9984 36.0047 68.6741 35.9472C68.4563 35.8897 68.3499 35.7433 68.3499 35.508C68.3347 34.5722 68.3245 33.0979 68.3093 31.0851C68.2941 29.0723 68.2891 27.0804 68.2891 25.1147C68.2891 24.4298 68.2941 23.9593 68.2992 23.7031C68.3043 23.4469 68.3093 23.2953 68.3093 23.2535C68.3347 23.0601 68.3904 22.9241 68.4715 22.8457C68.5525 22.7673 68.6893 22.715 68.8768 22.6889L69.3632 22.668C69.5405 22.668 69.7736 22.6837 70.0725 22.7098C70.1131 22.7255 70.1536 22.7725 70.1941 22.8562C70.2347 22.9398 70.2549 23.0182 70.2549 23.0862V23.1071L70.2347 30.5728C70.2347 30.7819 70.2549 30.8865 70.2955 30.8865C70.336 30.8865 70.4019 30.7819 70.4981 30.5728C70.5944 30.3637 70.6704 30.165 70.7413 29.9663Z" fill="#282828"/>
<path fill-rule="evenodd" clip-rule="evenodd" d="M28.131 46.3613C28.3635 46.3613 28.5603 46.1993 28.6362 45.9795C28.681 45.8501 28.7348 45.7227 28.8016 45.598C28.8979 45.4046 29.0296 45.253 29.1968 45.1484C29.364 45.0439 29.5515 44.9916 29.7541 44.9916C30.0784 44.9916 30.3571 45.1432 30.6053 45.4307C30.6859 45.5252 30.7538 45.6468 30.8094 45.7716C30.8473 45.9565 30.8992 46.1528 30.9702 46.3458C31.1475 46.8686 31.4667 47.3443 31.9328 47.7678C32.399 48.1913 33.0374 48.4056 33.848 48.4056C34.8208 48.4056 35.5758 48.207 36.1078 47.8096C36.6398 47.4123 37.0046 46.9941 37.192 46.5444C37.29 46.3091 37.3859 46.0145 37.468 45.7356C37.5204 45.6236 37.5829 45.516 37.6556 45.4307C37.9039 45.1432 38.1826 44.9916 38.5068 44.9916C38.7095 44.9916 38.897 45.0439 39.0642 45.1484C39.1789 45.2202 39.277 45.3141 39.3583 45.4285C39.3944 45.6987 39.4595 46.0269 39.5768 46.3458C39.7541 46.8686 40.0733 47.3443 40.5395 47.7678C41.0056 48.1913 41.644 48.4056 42.4547 48.4056C43.4275 48.4056 44.1824 48.207 44.7144 47.8096C45.2464 47.4123 45.6112 46.9941 45.7987 46.5444C45.8953 46.3125 45.9898 46.0229 46.0711 45.7476C46.1246 45.6313 46.189 45.5191 46.2643 45.4308C46.5126 45.1432 46.7912 44.9916 47.1155 44.9916C47.3182 44.9916 47.5056 45.0439 47.6728 45.1484C47.84 45.253 47.9718 45.4046 48.068 45.5981C48.1349 45.7227 48.1887 45.8501 48.2334 45.9795C48.3094 46.1993 48.5062 46.3613 48.7387 46.3613H50.0395C50.3474 46.3613 50.564 46.0892 50.4836 45.7919C50.3864 45.432 50.2503 44.9732 50.1099 44.6361C49.9224 44.1865 49.5576 43.7682 49.0256 43.3709C48.4936 42.9736 47.7387 42.7749 46.7659 42.7749C45.9552 42.7749 45.3168 42.9893 44.8507 43.4127C44.3846 43.8362 44.0654 44.312 43.888 44.8348C43.7743 45.1439 43.7097 45.4618 43.6729 45.7271C43.5883 45.8529 43.4846 45.9552 43.3616 46.0321C43.1944 46.1367 43.0069 46.1889 42.8043 46.1889C42.48 46.1889 42.2013 46.0373 41.9531 45.7498C41.8941 45.6813 41.842 45.5988 41.7965 45.5112C41.7104 45.2133 41.607 44.8901 41.5012 44.6361C41.3138 44.1865 40.949 43.7682 40.417 43.3709C39.885 42.9736 39.13 42.7749 38.1572 42.7749C37.3466 42.7749 36.7082 42.9893 36.242 43.4127C35.7759 43.8362 35.4567 44.3119 35.2794 44.8348C35.1651 45.1454 35.1004 45.4648 35.0638 45.7309C34.9796 45.8549 34.8767 45.956 34.755 46.0321C34.5878 46.1366 34.4003 46.1889 34.1976 46.1889C33.8734 46.1889 33.5947 46.0373 33.3464 45.7498C33.2664 45.6569 33.1991 45.5381 33.1437 45.4159C33.1057 45.229 33.0535 45.0301 32.9816 44.8348C32.8043 44.3119 32.4851 43.8362 32.0189 43.4127C31.5528 42.9893 30.9144 42.7749 30.1037 42.7749C29.1309 42.7749 28.376 42.9736 27.844 43.3709C27.312 43.7682 26.9472 44.1865 26.7597 44.6361C26.6193 44.9732 26.4833 45.432 26.386 45.7919C26.3056 46.0892 26.5222 46.3613 26.8302 46.3613H28.131Z" fill="#FF4646"/>
</g>
<defs>
<clipPath id="clip0">
<rect width="76" height="48" fill="white" transform="translate(0 0.96875)"/>
</clipPath>
</defs>
</svg>
