<svg width="16" height="28" viewBox="0 0 16 28" fill="none" xmlns="http://www.w3.org/2000/svg">
<path fill-rule="evenodd" clip-rule="evenodd" d="M10.9496 7.32319C10.9496 5.69413 9.6233 4.37212 7.99851 4.37212C6.36945 4.37212 5.04744 5.69413 5.04744 7.32319C5.04744 8.94798 6.37372 10.2743 7.99851 10.2743C9.6233 10.2743 10.9496 8.94798 10.9496 7.32319ZM15.1246 7.31892C15.1246 11.2508 11.9304 14.445 7.99851 14.445C4.0666 14.445 0.868193 11.2508 0.868193 7.32319C0.868193 3.39128 4.0666 0.192871 7.99851 0.192871C11.9262 0.192871 15.1246 3.39128 15.1246 7.31892ZM15.0226 18.5476C13.7304 19.3579 12.3316 19.9293 10.8817 20.2619L14.8648 24.245C15.6836 25.0596 15.6836 26.3816 14.8648 27.1961C14.0502 28.0106 12.7282 28.0106 11.9137 27.1961L7.99459 23.2812L4.07974 27.1961C3.67461 27.6012 3.14154 27.8059 2.60421 27.8059C2.07114 27.8059 1.53807 27.6012 1.12867 27.1961C0.314147 26.3816 0.314147 25.0596 1.12867 24.245L5.11176 20.2619C3.66181 19.9293 2.26304 19.3579 0.975151 18.5476C-0.00142936 17.9335 -0.295683 16.6413 0.32694 15.669C0.941035 14.6924 2.22893 14.3982 3.20551 15.0123C6.12245 16.846 9.87952 16.846 12.8007 15.0123C13.7773 14.3982 15.0652 14.6924 15.6793 15.669C16.2934 16.6456 15.9991 17.9335 15.0226 18.5476Z" fill="white"/>
</svg>
