<svg width="42" height="34" viewBox="0 0 42 34" fill="none" xmlns="http://www.w3.org/2000/svg">
<mask id="path-1-inside-1" fill="white">
<path fill-rule="evenodd" clip-rule="evenodd" d="M11 0C9.89543 0 9 0.895431 9 2V4H2C0.895431 4 0 4.89543 0 6V32C0 33.1046 0.89543 34 2 34H40C41.1046 34 42 33.1046 42 32V6C42 4.89543 41.1046 4 40 4H33V2C33 0.895431 32.1046 0 31 0H11ZM30 19C30 23.9706 25.9706 28 21 28C16.0294 28 12 23.9706 12 19C12 14.0294 16.0294 10 21 10C25.9706 10 30 14.0294 30 19Z"/>
</mask>
<path d="M9 4V5H10V4H9ZM33 4H32V5H33V4ZM10 2C10 1.44772 10.4477 1 11 1V-1C9.34315 -1 8 0.343146 8 2H10ZM10 4V2H8V4H10ZM9 3H2V5H9V3ZM2 3C0.343146 3 -1 4.34315 -1 6H1C1 5.44772 1.44772 5 2 5V3ZM-1 6V32H1V6H-1ZM-1 32C-1 33.6569 0.343145 35 2 35V33C1.44772 33 1 32.5523 1 32H-1ZM2 35H40V33H2V35ZM40 35C41.6569 35 43 33.6569 43 32H41C41 32.5523 40.5523 33 40 33V35ZM43 32V6H41V32H43ZM43 6C43 4.34315 41.6569 3 40 3V5C40.5523 5 41 5.44772 41 6H43ZM40 3H33V5H40V3ZM32 2V4H34V2H32ZM31 1C31.5523 1 32 1.44772 32 2H34C34 0.343145 32.6569 -1 31 -1V1ZM11 1H31V-1H11V1ZM21 29C26.5228 29 31 24.5228 31 19H29C29 23.4183 25.4183 27 21 27V29ZM11 19C11 24.5228 15.4772 29 21 29V27C16.5817 27 13 23.4183 13 19H11ZM21 9C15.4772 9 11 13.4772 11 19H13C13 14.5817 16.5817 11 21 11V9ZM31 19C31 13.4772 26.5228 9 21 9V11C25.4183 11 29 14.5817 29 19H31Z" fill="#FF4646" mask="url(#path-1-inside-1)"/>
</svg>
