<svg width="129" height="129" viewBox="0 0 129 129" fill="none" xmlns="http://www.w3.org/2000/svg">
<path fill-rule="evenodd" clip-rule="evenodd" d="M28.5237 33.3665C26.9895 31.3997 19.9897 19.7281 23.4626 18.9497C25.5049 18.491 32.7284 24.1694 36.2354 29.2279C38.6901 32.7684 38.321 35.9466 37.3585 36.7541C35.0211 38.7152 30.2083 35.5262 28.5237 33.3665ZM91.8722 36.4875C88.542 35.2319 96.3447 24.1852 98.1385 22.4518C100.108 20.5485 106.077 18.5293 108.118 20.7975C110.159 23.0658 95.2012 37.7443 91.8722 36.4875ZM90.5706 93.813C87.1519 95.2898 96.3233 106.099 98.2836 107.822C100.436 109.714 106.304 111.882 108.325 109.41C109.168 108.379 105.472 102.58 102.191 99.3736C97.6081 94.8959 92.5621 92.9518 90.5706 93.813ZM26.1261 97.1916C26.3874 96.9412 26.5991 96.7383 26.7423 96.5909C28.6712 94.6055 34.6362 92.3757 36.7698 94.6019C38.9034 96.828 24.9395 112.361 20.86 110.968C19.1457 110.383 19.0881 106.892 20.7861 103.645C22.1847 100.97 24.7968 98.4659 26.1261 97.1916Z" fill="#E9F3F9"/>
<path fill-rule="evenodd" clip-rule="evenodd" d="M66.9125 112.423C66.6164 114.9 63.3654 128.116 60.3517 126.222C58.5788 125.11 57.45 115.991 58.523 109.93C59.274 105.688 61.7745 103.691 63.0264 103.796C66.067 104.05 67.2377 109.704 66.9125 112.423ZM24.135 65.5913C25.6148 68.8282 12.2954 71.1749 9.80124 71.1421C7.06246 71.1061 1.40288 68.3356 1.55168 65.2881C1.70048 62.2405 22.6568 62.3545 24.135 65.5913ZM65.4357 25.8119C68.9027 27.1713 70.0048 13.0383 69.8267 10.4344C69.6312 7.57509 66.9921 1.90399 63.8167 2.23516C62.4918 2.37334 61.0316 9.09363 61.1029 13.6805C61.2024 20.0866 63.4153 25.0207 65.4357 25.8119ZM113.562 68.8009C113.2 68.7947 112.907 68.7896 112.701 68.7934C109.934 68.8443 104.129 66.2262 104.182 63.1431C104.235 60.06 125.088 58.8678 127.003 62.7299C127.808 64.3527 125.39 66.8713 121.898 67.9808C119.021 68.8948 115.403 68.8325 113.562 68.8009Z" fill="#E9F3F9"/>
<path d="M96.0322 55.73C97.0534 54.692 96.318 52.9369 94.8619 52.9369H82.1767C79.1543 52.9369 76.7042 50.4868 76.7042 47.4644V34.5088C76.7042 33.0393 74.9216 32.31 73.8916 33.358L69.5773 37.7474C67.4334 39.9287 63.918 39.9295 61.7731 37.7492L57.4503 33.3549C56.42 32.3076 54.6382 33.0371 54.6382 34.5063V47.4644C54.6382 50.4868 52.1881 52.9369 49.1657 52.9369H36.4805C35.0244 52.9369 34.289 54.692 35.3102 55.73L39.8233 60.3178C41.919 62.4481 41.9182 65.8657 39.8216 67.9951L35.3131 72.574C34.2912 73.6119 35.0265 75.3677 36.483 75.3677H49.1657C52.1881 75.3677 54.6382 77.8178 54.6382 80.8402V93.7983C54.6382 95.2675 56.4201 95.997 57.4503 94.9497L61.7731 90.5554C63.918 88.3751 67.4334 88.3759 69.5773 90.5572L73.8916 94.9466C74.9216 95.9946 76.7042 95.2653 76.7042 93.7958V80.8402C76.7042 77.8178 79.1543 75.3677 82.1767 75.3677H94.8594C96.316 75.3677 97.0512 73.6119 96.0293 72.574L91.5208 67.9951C89.4242 65.8657 89.4234 62.4481 91.5191 60.3178L96.0322 55.73Z" fill="#FF4646"/>
</svg>
