<svg width="23" height="19" viewBox="0 0 23 19" fill="none" xmlns="http://www.w3.org/2000/svg">
<path d="M20.6225 0.148714L1.28594 7.48169C0.227861 7.78813 0.261556 8.83435 1.04467 9.08544L5.89028 10.6001L7.7436 16.2929C7.9687 16.9165 8.15335 17.1501 8.5375 17.1555C8.94186 17.1609 9.09687 17.0137 9.5174 16.6411C10.0094 16.1781 10.7588 15.4505 11.9422 14.2976L16.9819 18.0276C17.9093 18.5405 18.5792 18.2746 18.8096 17.1649L21.969 1.51083C22.3074 0.151426 21.5094 -0.254923 20.6225 0.148714ZM6.64913 10.2518L17.6639 3.33057C18.2071 2.96608 18.377 3.37242 18.1317 3.65321L8.99038 11.8893L8.52132 15.9999L6.64913 10.2518Z" fill="white"/>
</svg>
