<svg width="23" height="19" viewBox="0 0 23 19" fill="none" xmlns="http://www.w3.org/2000/svg">
<path d="M22.4728 2.88538C21.6492 3.25121 20.7637 3.49826 19.835 3.6103C20.7839 3.04062 21.5117 2.1402 21.8541 1.06563C20.9672 1.59347 19.9832 1.9755 18.9373 2.18205C18.0989 1.28837 16.906 0.729492 15.5851 0.729492C13.0484 0.729492 10.9916 2.78953 10.9916 5.33015C10.9916 5.69059 11.032 6.04158 11.1102 6.37772C7.29301 6.18602 3.9085 4.35413 1.64273 1.57187C1.2478 2.2509 1.02136 3.04197 1.02136 3.88434C1.02136 5.48 1.83278 6.888 3.06473 7.71283C2.31127 7.68853 1.60364 7.48198 0.984966 7.13774C0.984966 7.15664 0.984966 7.17689 0.984966 7.19579C0.984966 9.42457 2.56872 11.2835 4.67005 11.706C4.28456 11.8113 3.87886 11.868 3.45967 11.868C3.16314 11.868 2.87603 11.8396 2.59568 11.7857C3.18065 13.6135 4.87628 14.9432 6.88596 14.9797C5.31434 16.2135 3.33296 16.9492 1.18176 16.9492C0.811094 16.9492 0.44582 16.9276 0.0859375 16.8844C2.11853 18.1899 4.53257 18.9512 7.12722 18.9512C15.5757 18.9512 20.1962 11.9409 20.1962 5.86203C20.1962 5.66224 20.1922 5.4638 20.1827 5.2667C21.0777 4.61737 21.8568 3.8074 22.4728 2.88538Z" fill="white"/>
</svg>
