<svg width="27" height="15" viewBox="0 0 27 15" fill="none" xmlns="http://www.w3.org/2000/svg">
<path fill-rule="evenodd" clip-rule="evenodd" d="M13.107 14.7027H14.6503C14.6503 14.7027 15.1167 14.6514 15.3553 14.3949C15.575 14.1587 15.5669 13.7159 15.5669 13.7159C15.5669 13.7159 15.5372 11.6424 16.4983 11.3359C17.4458 11.0349 18.663 13.3406 19.9515 14.2275C20.9274 14.8985 21.6674 14.7513 21.6674 14.7513L25.1152 14.7027C25.1152 14.7027 26.9187 14.5907 26.0641 13.1705C25.994 13.0544 25.5654 12.1203 23.5005 10.1993C21.3385 8.18917 21.6283 8.51451 24.2324 5.03837C25.8188 2.92164 26.4523 1.62838 26.2542 1.07489C26.0655 0.547061 24.8982 0.686107 24.8982 0.686107L21.0163 0.710406C21.0163 0.710406 20.7279 0.671257 20.5149 0.799503C20.306 0.925049 20.1726 1.21664 20.1726 1.21664C20.1726 1.21664 19.5579 2.85549 18.7384 4.24865C17.0091 7.18886 16.3177 7.3441 16.0359 7.16186C15.3782 6.73662 15.5426 5.45281 15.5426 4.54024C15.5426 1.69048 15.9739 0.502513 14.7029 0.194722C14.281 0.0921253 13.9697 0.0259773 12.89 0.0138277C11.5044 0.000328143 10.3317 0.0178777 9.66859 0.344568C9.22649 0.560561 8.88547 1.04385 9.09439 1.07219C9.35049 1.10594 9.93143 1.22879 10.2401 1.64863C10.6377 2.19131 10.6242 3.40762 10.6242 3.40762C10.6242 3.40762 10.8534 6.76227 10.0905 7.17806C9.5675 7.46425 8.84908 6.88106 7.30846 4.2122C6.51861 2.84604 5.92285 1.33544 5.92285 1.33544C5.92285 1.33544 5.80828 1.0533 5.6034 0.9021C5.35405 0.718506 5.00764 0.660458 5.00764 0.660458L1.31447 0.687457C1.31447 0.687457 0.760491 0.702306 0.556962 0.943949C0.376347 1.15859 0.542136 1.60273 0.542136 1.60273C0.542136 1.60273 3.43063 8.37142 6.70057 11.7814C9.70094 14.9079 13.107 14.7027 13.107 14.7027Z" fill="white"/>
</svg>
