<svg width="53" height="32" viewBox="0 0 53 32" fill="none" xmlns="http://www.w3.org/2000/svg">
<path d="M1.29952 9.6C1.29952 11.2 1.45942 12.64 2.09904 13.6C2.57875 14.72 3.21837 15.52 3.85798 16C4.4976 16.8 5.45702 17.28 6.57635 17.6L0.5 32H7.69568L18.0894 16.8C18.4092 16.16 18.729 15.52 19.2088 14.72C19.5286 14.08 19.6885 13.44 20.0083 12.48C20.3281 11.68 20.488 10.72 20.488 9.6C20.488 6.88 19.5286 4.64 17.7696 2.72C15.8508 0.960001 13.6121 0 10.8938 0C8.01548 0 5.77683 0.960001 4.01789 2.72C2.09904 4.64 1.29952 6.88 1.29952 9.6Z" fill="#282828"/>
<path d="M33.3115 9.6C33.3115 11.2 33.4714 12.64 34.1111 13.6C34.5908 14.72 35.2304 15.52 35.87 16C36.5096 16.8 37.469 17.28 38.5884 17.6L32.512 32H39.7077L50.1014 16.8C50.4212 16.16 50.7411 15.52 51.2208 14.72C51.5406 14.08 51.7005 13.44 52.0203 12.48C52.3401 11.68 52.5 10.72 52.5 9.6C52.5 6.88 51.5406 4.64 49.7816 2.72C47.8628 0.960001 45.6241 0 42.9058 0C40.0275 0 37.7888 0.960001 36.0299 2.72C34.1111 4.64 33.3115 6.88 33.3115 9.6Z" fill="#282828"/>
</svg>
