<svg width="320" height="453" viewBox="0 0 320 453" fill="none" xmlns="http://www.w3.org/2000/svg">
<rect width="320.038" height="352" transform="matrix(1 0 0 -1 0.00390625 398.927)" fill="#18305E"/>
<mask id="mask0" mask-type="alpha" maskUnits="userSpaceOnUse" x="0" y="46" width="321" height="353">
<path opacity="0.85" d="M0.00390625 46.8317H320.042V398.832H240.032H200.028H180.025H170.024H160.275H150.022H140.02H120.018H80.0134H0.00390625V46.8317Z" fill="#1C2E51"/>
</mask>
<g mask="url(#mask0)">
<g opacity="0.2">
<path d="M223.66 247.103L188.36 211.876L224.35 175.998L184.744 136.516L148.753 172.376L113.453 137.186L78.1164 172.376L42.1802 136.516L2.51953 175.998L38.4921 211.876L3.19175 247.103L38.4921 282.293L2.51953 318.153L42.1802 357.635L78.1164 321.775L113.453 356.965L148.753 321.775L184.744 357.635L224.35 318.153L188.36 282.293L223.66 247.103ZM113.453 300.693L59.6396 247.084L113.453 193.439L167.23 247.084L113.453 300.693Z" fill="#E6E6E7"/>
<path d="M234.56 473.582L113.434 352.836L-7.69141 473.582L113.434 594.329L234.56 473.582ZM31.2607 473.582L88.9803 449.187L113.452 391.666L137.925 449.187L195.626 473.582L137.907 497.978L113.434 555.517L88.9621 497.978L31.2607 473.582Z" fill="#E6E6E7"/>
<path d="M234.56 20.5685L113.434 -100.178L-7.69141 20.5685L113.434 141.316L234.56 20.5685ZM31.2607 20.5685L88.9803 -3.82716L113.452 -61.3481L137.925 -3.82716L195.626 20.5685L137.925 44.9642L113.452 102.503L88.9621 44.9642L31.2607 20.5685Z" fill="#E6E6E7"/>
</g>
<g opacity="0.2">
<path d="M560.734 349.558L439.608 228.811L318.482 349.558L439.608 470.305L560.734 349.558ZM357.435 349.558L415.154 325.162L439.626 267.641L464.099 325.162L521.8 349.558L464.08 373.954L439.608 431.493L415.136 373.954L357.435 349.558Z" fill="#E6E6E7"/>
</g>
<g opacity="0.9" filter="url(#filter0_d)">
<path d="M0.00390625 46.8317H320.042V398.832H240.032H200.028H180.025H170.024H160.275H150.022H140.02H120.018H80.0134H0.00390625V46.8317Z" fill="#18305E"/>
</g>
</g>
<defs>
<filter id="filter0_d" x="-49.9961" y="0.831665" width="420.038" height="452" filterUnits="userSpaceOnUse" color-interpolation-filters="sRGB">
<feFlood flood-opacity="0" result="BackgroundImageFix"/>
<feColorMatrix in="SourceAlpha" type="matrix" values="0 0 0 0 0 0 0 0 0 0 0 0 0 0 0 0 0 0 127 0"/>
<feOffset dy="4"/>
<feGaussianBlur stdDeviation="25"/>
<feColorMatrix type="matrix" values="0 0 0 0 0.0862745 0 0 0 0 0.0862745 0 0 0 0 0.0862745 0 0 0 0.2 0"/>
<feBlend mode="normal" in2="BackgroundImageFix" result="effect1_dropShadow"/>
<feBlend mode="normal" in="SourceGraphic" in2="effect1_dropShadow" result="shape"/>
</filter>
</defs>
</svg>
